<?xml version="1.0" encoding="UTF-8"?>
<svg id="Capa_1" data-name="Capa 1" xmlns="http://www.w3.org/2000/svg" viewBox="0 0 330.21 61.96">
  <defs>
    <style>
      .cls-1 {
        fill: #0d2149;
      }

      .cls-1, .cls-2, .cls-3 {
        stroke-width: 0px;
      }

      .cls-2 {
        fill: #13264e;
      }

      .cls-3 {
        fill: #cad2f1;
      }
    </style>
  </defs>
  <path class="cls-1" d="M236.77,33.16c-.05-1.64,1.68-2.87,3.13-2.09,1.94,1.05.59,3.92.91,6,.26,1.71.49,3.78-.93,4.46-1.34.65-2.88-.48-2.94-1.96-.08-2.2-.1-4.24-.17-6.42Z"/>
  <path class="cls-1" d="M290.73,60.96h-15.87c-2.52-.21-3.34-.23-5.7-.31-1.43-.05-6.35-.72-9.74-1.34-5.82-1.07-14.33-5.21-16.27-14.59-1.26-6.09-1.28-12.45-.34-18.55,1.67-10.93,13.32-22.01,24.49-23.86,9.59-1.58,19.25-1.72,28.86-.03,16.14,2.84,28.12,20.16,25.46,36.7-2.01,12.5-6.85,18.68-16.34,20.23-3.79.62-5.57.67-9.39,1.34-1.67.29-3.52.25-5.15.41Z"/>
  <path class="cls-3" d="M281.58,23.21c7.56.3,15.09.47,22.54,2.12,3.73.82,5.28,2.92,5.69,6.4,1.39,11.99-2.86,17.95-14.86,20.03-10.66,1.85-21.36,2-31.83-1.2-8.43-2.57-13.25-14.38-9.2-22.12,1.08-2.06,3.06-2.73,5.17-3.13,2.58-.5,5.15-1.19,7.76-1.4,4.9-.39,9.83-.48,14.74-.7Z"/>
  <path class="cls-1" d="M76.12,26.62c-.82,0-1.59-.14-2.29-.41-.7-.27-1.31-.66-1.83-1.16-.52-.5-.92-1.08-1.21-1.75s-.43-1.4-.43-2.19.14-1.51.43-2.18c.29-.67.69-1.25,1.21-1.74.52-.49,1.13-.88,1.83-1.15.7-.27,1.47-.41,2.29-.41s1.63.14,2.34.41,1.34.66,1.87,1.15c.53.49.94,1.07,1.24,1.74.29.67.44,1.4.44,2.18s-.15,1.52-.44,2.19-.71,1.25-1.24,1.75c-.53.5-1.15.88-1.87,1.16-.72.27-1.5.41-2.34.41ZM76.12,25.73c.69,0,1.34-.11,1.93-.33s1.12-.54,1.57-.95c.45-.41.8-.9,1.05-1.46.25-.56.37-1.18.37-1.86s-.12-1.27-.37-1.82c-.24-.55-.59-1.04-1.04-1.45s-.97-.74-1.57-.98c-.6-.24-1.25-.36-1.96-.36s-1.32.12-1.9.36c-.58.24-1.09.57-1.52.98-.43.42-.77.9-1.01,1.46-.25.56-.37,1.16-.37,1.8s.12,1.25.37,1.81c.24.56.58,1.05,1.02,1.47.43.42.94.75,1.52.99.58.24,1.22.36,1.91.36ZM76.25,24.68c-.6,0-1.14-.09-1.61-.28s-.88-.44-1.21-.77c-.34-.32-.59-.7-.76-1.14s-.26-.89-.26-1.37.08-.91.25-1.34c.16-.43.4-.81.72-1.14.32-.33.72-.6,1.2-.79.48-.19,1.03-.29,1.66-.29.83,0,1.55.18,2.15.54s1.03.85,1.31,1.46l-2.29.7c-.09-.16-.2-.3-.32-.4s-.26-.19-.4-.24c-.15-.05-.3-.08-.45-.08-.21,0-.41.04-.57.12s-.32.19-.44.33c-.13.14-.22.3-.29.5-.07.2-.1.41-.1.63,0,.24.04.46.11.66.08.2.19.36.33.48s.3.22.46.29c.16.07.34.11.52.11.16,0,.32-.03.47-.08.15-.05.28-.13.4-.24.12-.11.23-.24.32-.4l2.29.7c-.16.38-.41.72-.73,1.02-.33.31-.72.55-1.17.73-.45.18-.98.27-1.57.27Z"/>
  <path class="cls-1" d="M83.16,26.54c0-.48.04-.92.12-1.3.08-.38.2-.73.38-1.05.18-.32.42-.62.72-.89.3-.27.68-.52,1.14-.75.48-.27.88-.49,1.2-.67.32-.18.58-.33.76-.46.19-.13.32-.25.4-.36.08-.11.12-.24.12-.39,0-.2-.05-.37-.14-.52s-.22-.26-.4-.34c-.17-.08-.39-.13-.64-.13-.2,0-.4.03-.58.08-.18.05-.36.13-.53.23-.17.1-.33.22-.49.36-.16.14-.3.29-.44.47l-1.56-1.8c.17-.18.39-.36.66-.53s.57-.32.92-.46c.35-.14.73-.25,1.14-.34.41-.09.84-.13,1.3-.13.73,0,1.35.11,1.86.33.5.22.89.53,1.15.94s.4.88.4,1.44c0,.34-.05.65-.16.92-.11.27-.25.51-.42.71-.17.2-.37.39-.58.55-.21.17-.43.32-.66.45-.24.12-.47.25-.68.37-.21.12-.41.23-.6.34s-.36.23-.52.35c-.16.12-.31.25-.45.39h4.23v2.2h-7.67Z"/>
  <path class="cls-1" d="M100.15,22.14c0,.88-.18,1.67-.53,2.35s-.82,1.23-1.42,1.62c-.6.39-1.28.59-2.05.59s-1.43-.2-2.03-.59c-.6-.39-1.07-.93-1.42-1.62-.35-.69-.52-1.47-.52-2.35s.17-1.67.52-2.35c.35-.69.82-1.23,1.42-1.62s1.28-.59,2.05-.59,1.44.2,2.04.59,1.07.94,1.42,1.62.53,1.47.53,2.35ZM97.69,22.13c0-.46-.07-.87-.2-1.22-.13-.35-.31-.62-.54-.82-.23-.19-.49-.29-.79-.29s-.58.1-.81.29c-.23.19-.42.46-.54.82-.13.35-.19.76-.19,1.22s.06.86.19,1.21c.13.35.31.62.54.82.23.19.5.29.81.29s.56-.09.79-.28c.23-.19.41-.46.54-.81.13-.35.2-.76.2-1.22Z"/>
  <path class="cls-1" d="M101.39,26.54c0-.48.04-.92.12-1.3.08-.38.2-.73.38-1.05.18-.32.42-.62.72-.89.3-.27.68-.52,1.14-.75.48-.27.88-.49,1.2-.67.32-.18.58-.33.76-.46.19-.13.32-.25.4-.36.08-.11.12-.24.12-.39,0-.2-.05-.37-.14-.52s-.22-.26-.4-.34c-.17-.08-.39-.13-.64-.13-.2,0-.4.03-.58.08-.18.05-.36.13-.53.23-.17.1-.33.22-.49.36-.16.14-.3.29-.44.47l-1.56-1.8c.17-.18.39-.36.66-.53s.57-.32.92-.46c.35-.14.73-.25,1.14-.34.41-.09.84-.13,1.3-.13.73,0,1.35.11,1.86.33.5.22.89.53,1.15.94s.4.88.4,1.44c0,.34-.05.65-.16.92-.11.27-.25.51-.42.71-.17.2-.37.39-.58.55-.21.17-.43.32-.66.45-.24.12-.47.25-.68.37-.21.12-.41.23-.6.34s-.36.23-.52.35c-.16.12-.31.25-.45.39h4.23v2.2h-7.67Z"/>
  <path class="cls-1" d="M114.2,28.48v-2.09h-4.23v-2.18l4.99-6.38h1.68v6.37h1.34v2.2h-1.34v2.09h-2.44ZM112.4,24.19h2.06v-2.7l-2.06,2.7Z"/>
  <path class="cls-1" d="M125.41,15.7h2.69l3.76,10.84h-2.57l-.74-2.43h-3.58l-.74,2.43h-2.57l3.74-10.84ZM128.03,22.4l-1.27-4.18-1.27,4.18h2.54Z"/>
  <path class="cls-1" d="M132.48,23.7v-5.09h2.44v4.54c0,.47.1.83.3,1.09.2.26.48.38.83.38.22,0,.44-.04.64-.11.2-.07.4-.19.6-.36.19-.17.37-.39.52-.67v-4.88h2.44v5.22c0,.24.04.41.11.51.08.1.21.16.41.17v2.03c-.22.05-.42.08-.59.1-.17.02-.32.02-.45,0-.43,0-.77-.07-1.02-.24-.25-.17-.41-.42-.47-.75l-.05-.48c-.37.52-.82.91-1.36,1.16-.54.25-1.15.37-1.83.37-.81,0-1.44-.25-1.87-.76s-.65-1.25-.65-2.23Z"/>
  <path class="cls-1" d="M147.23,20.62c-.59,0-1.12.09-1.6.28s-.82.47-1.04.83v4.81h-2.44v-7.93h2.23v1.53c.29-.54.65-.96,1.08-1.27s.9-.46,1.37-.47h.25c.05,0,.1,0,.15.02v2.2Z"/>
  <path class="cls-1" d="M152.01,26.69c-.69,0-1.3-.11-1.82-.32-.52-.22-.97-.52-1.34-.9-.37-.39-.65-.83-.84-1.32-.19-.49-.28-1.01-.28-1.55s.1-1.08.29-1.57c.19-.49.47-.93.83-1.31.36-.38.81-.68,1.34-.9.53-.22,1.14-.32,1.82-.32s1.29.11,1.82.32c.53.22.98.52,1.34.9s.65.82.84,1.31c.19.49.29,1.01.29,1.57s-.09,1.06-.28,1.55c-.19.49-.47.93-.84,1.32-.37.39-.82.69-1.35.9-.53.22-1.14.32-1.82.32ZM150.22,22.59c0,.4.08.75.24,1.06.16.31.37.55.63.72s.57.26.92.26.64-.09.91-.26c.27-.17.48-.41.63-.71.15-.3.23-.66.23-1.06s-.08-.76-.23-1.06c-.15-.3-.36-.54-.63-.72-.27-.18-.57-.27-.91-.27s-.64.09-.9.26c-.27.17-.48.41-.64.72-.16.31-.24.67-.24,1.07Z"/>
  <path class="cls-1" d="M162.59,20.62c-.59,0-1.12.09-1.6.28s-.82.47-1.04.83v4.81h-2.44v-7.93h2.23v1.53c.29-.54.65-.96,1.08-1.27s.9-.46,1.37-.47h.25c.05,0,.1,0,.15.02v2.2Z"/>
  <path class="cls-1" d="M163.05,24.17c0-.51.15-.97.44-1.37.3-.4.7-.71,1.22-.94.52-.23,1.12-.34,1.79-.34.33,0,.65.03.96.08.32.06.59.14.82.24v-.35c0-.43-.13-.76-.4-.98-.26-.22-.67-.33-1.21-.33-.44,0-.85.08-1.25.23-.4.15-.81.37-1.25.66l-.73-1.56c.53-.35,1.08-.6,1.66-.77s1.18-.25,1.83-.25c1.2,0,2.13.28,2.8.84s1,1.38,1,2.46v2.04c0,.24.04.41.11.51.08.1.21.15.39.17v2.03c-.2.05-.39.08-.56.1-.17.02-.33.02-.46.02-.46,0-.8-.09-1.04-.27-.23-.18-.39-.43-.46-.75l-.06-.35c-.35.46-.77.81-1.26,1.05-.49.24-1.01.36-1.55.36s-1-.11-1.43-.32c-.42-.22-.76-.52-1-.9-.24-.38-.37-.81-.37-1.3ZM167.9,24.46c.11-.09.2-.19.28-.3.07-.11.11-.21.11-.3v-.7c-.2-.08-.43-.14-.69-.19-.25-.04-.49-.07-.7-.07-.44,0-.8.1-1.1.3-.3.2-.44.45-.44.76,0,.17.05.33.15.48.1.15.24.27.42.36.18.08.39.13.63.13s.49-.04.73-.13.45-.2.61-.33Z"/>
  <path class="cls-1" d="M178.53,15.7h2.69l3.76,10.84h-2.57l-.74-2.43h-3.58l-.74,2.43h-2.57l3.74-10.84ZM181.16,22.4l-1.27-4.18-1.27,4.18h2.54Z"/>
  <path class="cls-1" d="M185.14,22.58c0-.76.15-1.45.46-2.07.31-.62.72-1.11,1.25-1.47s1.14-.54,1.83-.54c.56,0,1.07.13,1.53.4.46.27.8.62,1.04,1.05v-4.55h2.44v8.43c0,.24.04.42.12.52.08.1.22.16.42.17v2.03c-.44.08-.79.12-1.05.12-.43,0-.77-.09-1.02-.27-.25-.18-.41-.44-.47-.76l-.03-.41c-.29.5-.69.87-1.18,1.11-.49.24-1,.37-1.54.37s-1.06-.1-1.52-.31c-.46-.21-.87-.49-1.21-.87-.34-.37-.6-.81-.79-1.3-.18-.5-.27-1.04-.27-1.64ZM191.27,23.55v-1.64c-.1-.27-.25-.5-.43-.7-.19-.2-.4-.36-.64-.48s-.48-.19-.71-.19c-.28,0-.52.06-.75.18-.22.12-.41.27-.57.46s-.28.41-.37.66c-.09.25-.13.52-.13.8s.05.55.14.79c.1.24.23.45.4.63.17.18.37.32.61.42s.5.16.77.16c.17,0,.34-.02.5-.07.16-.05.32-.12.47-.22.15-.1.28-.21.4-.34.12-.13.22-.28.31-.45Z"/>
  <path class="cls-1" d="M197.6,26.54l-2.83-7.93h2.52l1.76,5.75,1.76-5.75h2.29l-2.83,7.93h-2.67Z"/>
  <path class="cls-1" d="M204.03,17.62v-2.23h2.44v2.23h-2.44ZM204.03,26.54v-8.02h2.44v8.02h-2.44Z"/>
  <path class="cls-1" d="M211.22,26.69c-.68,0-1.35-.11-1.99-.34s-1.2-.56-1.66-1l.85-1.53c.48.36.95.62,1.41.8.46.18.9.27,1.31.27.3,0,.55-.05.72-.14.18-.09.27-.24.27-.44,0-.15-.05-.27-.16-.35-.11-.08-.26-.16-.47-.23-.2-.08-.46-.15-.76-.23-.61-.21-1.12-.41-1.53-.59-.41-.19-.71-.42-.92-.69-.2-.28-.3-.63-.3-1.08,0-.53.14-1,.41-1.39.27-.4.66-.7,1.15-.93.49-.22,1.09-.33,1.78-.33.55,0,1.09.09,1.62.26.53.17,1.02.47,1.48.89l-.96,1.51c-.45-.32-.85-.54-1.21-.69-.36-.14-.71-.21-1.05-.21-.17,0-.33.02-.47.06-.14.04-.26.1-.34.19-.09.09-.13.21-.13.38,0,.14.04.26.13.35.09.09.22.17.41.24.19.06.42.14.69.22.67.2,1.23.39,1.67.58.44.19.77.43.99.72.22.29.33.67.33,1.14,0,.8-.3,1.43-.89,1.88-.59.46-1.39.68-2.4.68Z"/>
  <path class="cls-1" d="M219.58,26.69c-.68,0-1.29-.11-1.82-.32s-.98-.51-1.35-.88c-.37-.37-.65-.8-.85-1.29s-.29-1-.29-1.53c0-.76.17-1.46.51-2.08s.83-1.13,1.47-1.51c.64-.38,1.42-.57,2.32-.57s1.68.19,2.32.57c.64.38,1.13.88,1.46,1.5.33.62.5,1.29.5,2.01,0,.14,0,.28-.02.41-.02.14-.03.25-.04.35h-5.92c.02.35.12.64.29.88.17.24.39.42.66.53.26.12.54.18.82.18.38,0,.73-.09,1.05-.26.32-.17.54-.4.65-.69l2.08.6c-.2.42-.49.78-.86,1.09s-.8.56-1.31.75c-.5.19-1.06.28-1.67.28ZM217.82,21.84h3.47c-.03-.32-.13-.61-.29-.85s-.37-.43-.61-.56c-.24-.13-.53-.2-.85-.2-.3,0-.57.07-.83.2-.25.13-.46.32-.61.55s-.24.52-.27.85Z"/>
  <path class="cls-1" d="M230.05,20.62c-.59,0-1.12.09-1.6.28s-.82.47-1.04.83v4.81h-2.44v-7.93h2.23v1.53c.29-.54.65-.96,1.08-1.27s.9-.46,1.37-.47h.25c.05,0,.1,0,.15.02v2.2Z"/>
  <path class="cls-1" d="M10.5,36.22h-3.3v8.64h-2.5v-8.64H1.39v-2.2h9.12v2.2Z"/>
  <path class="cls-1" d="M13.94,45.02c-.69,0-1.3-.11-1.82-.32-.52-.22-.97-.52-1.34-.9-.37-.39-.65-.83-.84-1.32-.19-.49-.28-1.01-.28-1.55s.1-1.08.29-1.57c.19-.49.47-.93.83-1.31.36-.38.81-.68,1.34-.9.53-.22,1.14-.32,1.82-.32s1.29.11,1.82.32c.53.22.98.52,1.34.9s.65.82.84,1.31c.19.49.29,1.01.29,1.57s-.09,1.06-.28,1.55c-.19.49-.47.93-.84,1.32-.37.39-.82.69-1.35.9-.53.22-1.14.32-1.82.32ZM12.15,40.92c0,.4.08.75.24,1.06.16.31.37.55.63.72s.57.26.92.26.64-.09.91-.26c.27-.17.48-.41.63-.71.15-.3.23-.66.23-1.06s-.08-.76-.23-1.06c-.15-.3-.36-.54-.63-.72-.27-.18-.57-.27-.91-.27s-.64.09-.9.26c-.27.17-.48.41-.64.72-.16.31-.24.67-.24,1.07Z"/>
  <path class="cls-1" d="M18.98,40.9c0-.76.15-1.45.46-2.07.31-.62.72-1.11,1.25-1.47s1.14-.54,1.83-.54c.56,0,1.07.13,1.53.4.46.27.8.62,1.04,1.05v-4.55h2.44v8.43c0,.24.04.42.12.52.08.1.22.16.42.17v2.03c-.44.08-.79.12-1.05.12-.43,0-.77-.09-1.02-.27-.25-.18-.41-.44-.47-.76l-.03-.41c-.29.5-.69.87-1.18,1.11-.49.24-1,.37-1.54.37s-1.06-.1-1.52-.31c-.46-.21-.87-.49-1.21-.87-.34-.37-.6-.81-.79-1.3-.18-.5-.27-1.04-.27-1.64ZM25.1,41.87v-1.64c-.1-.27-.25-.5-.43-.7-.19-.2-.4-.36-.64-.48s-.48-.19-.71-.19c-.28,0-.52.06-.75.18-.22.12-.41.27-.57.46s-.28.41-.37.66c-.09.25-.13.52-.13.8s.05.55.14.79c.1.24.23.45.4.63.17.18.37.32.61.42s.5.16.77.16c.17,0,.34-.02.5-.07.16-.05.32-.12.47-.22.15-.1.28-.21.4-.34.12-.13.22-.28.31-.45Z"/>
  <path class="cls-1" d="M33.24,45.02c-.69,0-1.3-.11-1.82-.32-.52-.22-.97-.52-1.34-.9-.37-.39-.65-.83-.84-1.32-.19-.49-.28-1.01-.28-1.55s.1-1.08.29-1.57c.19-.49.47-.93.83-1.31.36-.38.81-.68,1.34-.9.53-.22,1.14-.32,1.82-.32s1.29.11,1.82.32c.53.22.98.52,1.34.9s.65.82.84,1.31c.19.49.29,1.01.29,1.57s-.09,1.06-.28,1.55c-.19.49-.47.93-.84,1.32-.37.39-.82.69-1.35.9-.53.22-1.14.32-1.82.32ZM31.45,40.92c0,.4.08.75.24,1.06.16.31.37.55.63.72s.57.26.92.26.64-.09.91-.26c.27-.17.48-.41.63-.71.15-.3.23-.66.23-1.06s-.08-.76-.23-1.06c-.15-.3-.36-.54-.63-.72-.27-.18-.57-.27-.91-.27s-.64.09-.9.26c-.27.17-.48.41-.64.72-.16.31-.24.67-.24,1.07Z"/>
  <path class="cls-1" d="M41.81,45.02c-.68,0-1.35-.11-1.99-.34s-1.2-.56-1.66-1l.85-1.53c.48.36.95.62,1.41.8.46.18.9.27,1.31.27.3,0,.55-.05.72-.14.18-.09.27-.24.27-.44,0-.15-.05-.27-.16-.35-.11-.08-.26-.16-.47-.23-.2-.08-.46-.15-.76-.23-.61-.21-1.12-.41-1.53-.59-.41-.19-.71-.42-.92-.69-.2-.28-.3-.63-.3-1.08,0-.53.14-1,.41-1.39.27-.4.66-.7,1.15-.93.49-.22,1.09-.33,1.78-.33.55,0,1.09.09,1.62.26.53.17,1.02.47,1.48.89l-.96,1.51c-.45-.32-.85-.54-1.21-.69-.36-.14-.71-.21-1.05-.21-.17,0-.33.02-.47.06-.14.04-.26.1-.34.19-.09.09-.13.21-.13.38,0,.14.04.26.13.35.09.09.22.17.41.24.19.06.42.14.69.22.67.2,1.23.39,1.67.58.44.19.77.43.99.72.22.29.33.67.33,1.14,0,.8-.3,1.43-.89,1.88-.59.46-1.39.68-2.4.68Z"/>
  <path class="cls-1" d="M49.85,33.72h2.44v8.29c0,.34.06.58.18.72s.3.21.53.21c.14,0,.29-.02.45-.06.16-.04.3-.1.42-.18l.32,1.85c-.31.13-.66.24-1.05.34-.4.09-.77.14-1.11.14-.7,0-1.24-.19-1.62-.56-.38-.37-.56-.9-.56-1.6v-9.15Z"/>
  <path class="cls-1" d="M58.82,45.02c-.69,0-1.3-.11-1.82-.32-.52-.22-.97-.52-1.34-.9-.37-.39-.65-.83-.84-1.32-.19-.49-.28-1.01-.28-1.55s.1-1.08.29-1.57c.19-.49.47-.93.83-1.31.36-.38.81-.68,1.34-.9.53-.22,1.14-.32,1.82-.32s1.29.11,1.82.32c.53.22.98.52,1.34.9s.65.82.84,1.31c.19.49.29,1.01.29,1.57s-.09,1.06-.28,1.55c-.19.49-.47.93-.84,1.32-.37.39-.82.69-1.35.9-.53.22-1.14.32-1.82.32ZM57.03,40.92c0,.4.08.75.24,1.06.16.31.37.55.63.72s.57.26.92.26.64-.09.91-.26c.27-.17.48-.41.63-.71.15-.3.23-.66.23-1.06s-.08-.76-.23-1.06c-.15-.3-.36-.54-.63-.72-.27-.18-.57-.27-.91-.27s-.64.09-.9.26c-.27.17-.48.41-.64.72-.16.31-.24.67-.24,1.07Z"/>
  <path class="cls-1" d="M67.38,45.02c-.68,0-1.35-.11-1.99-.34s-1.2-.56-1.66-1l.85-1.53c.48.36.95.62,1.41.8.46.18.9.27,1.31.27.3,0,.55-.05.72-.14.18-.09.27-.24.27-.44,0-.15-.05-.27-.16-.35-.11-.08-.26-.16-.47-.23-.2-.08-.46-.15-.76-.23-.61-.21-1.12-.41-1.53-.59-.41-.19-.71-.42-.92-.69-.2-.28-.3-.63-.3-1.08,0-.53.14-1,.41-1.39.27-.4.66-.7,1.15-.93.49-.22,1.09-.33,1.78-.33.55,0,1.09.09,1.62.26.53.17,1.02.47,1.48.89l-.96,1.51c-.45-.32-.85-.54-1.21-.69-.36-.14-.71-.21-1.05-.21-.17,0-.33.02-.47.06-.14.04-.26.1-.34.19-.09.09-.13.21-.13.38,0,.14.04.26.13.35.09.09.22.17.41.24.19.06.42.14.69.22.67.2,1.23.39,1.67.58.44.19.77.43.99.72.22.29.33.67.33,1.14,0,.8-.3,1.43-.89,1.88-.59.46-1.39.68-2.4.68Z"/>
  <path class="cls-1" d="M75,40.9c0-.76.15-1.45.46-2.07.31-.62.72-1.11,1.25-1.47s1.14-.54,1.83-.54c.56,0,1.07.13,1.53.4.46.27.8.62,1.04,1.05v-4.55h2.44v8.43c0,.24.04.42.12.52.08.1.22.16.42.17v2.03c-.44.08-.79.12-1.05.12-.43,0-.77-.09-1.02-.27-.25-.18-.41-.44-.47-.76l-.03-.41c-.29.5-.69.87-1.18,1.11-.49.24-1,.37-1.54.37s-1.06-.1-1.52-.31c-.46-.21-.87-.49-1.21-.87-.34-.37-.6-.81-.79-1.3-.18-.5-.27-1.04-.27-1.64ZM81.13,41.87v-1.64c-.1-.27-.25-.5-.43-.7-.19-.2-.4-.36-.64-.48s-.48-.19-.71-.19c-.28,0-.52.06-.75.18-.22.12-.41.27-.57.46s-.28.41-.37.66c-.09.25-.13.52-.13.8s.05.55.14.79c.1.24.23.45.4.63.17.18.37.32.61.42s.5.16.77.16c.17,0,.34-.02.5-.07.16-.05.32-.12.47-.22.15-.1.28-.21.4-.34.12-.13.22-.28.31-.45Z"/>
  <path class="cls-1" d="M89.28,45.02c-.68,0-1.29-.11-1.82-.32s-.98-.51-1.35-.88c-.37-.37-.65-.8-.85-1.29s-.29-1-.29-1.53c0-.76.17-1.46.51-2.08s.83-1.13,1.47-1.51c.64-.38,1.42-.57,2.32-.57s1.68.19,2.32.57c.64.38,1.13.88,1.46,1.5.33.62.5,1.29.5,2.01,0,.14,0,.28-.02.41-.02.14-.03.25-.04.35h-5.92c.02.35.12.64.29.88.17.24.39.42.66.53.26.12.54.18.82.18.38,0,.73-.09,1.05-.26.32-.17.54-.4.65-.69l2.08.6c-.2.42-.49.78-.86,1.09s-.8.56-1.31.75c-.5.19-1.06.28-1.67.28ZM87.52,40.16h3.47c-.03-.32-.13-.61-.29-.85s-.37-.43-.61-.56c-.24-.13-.53-.2-.85-.2-.3,0-.57.07-.83.2-.25.13-.46.32-.61.55s-.24.52-.27.85Z"/>
  <path class="cls-1" d="M99.75,38.94c-.59,0-1.12.09-1.6.28s-.82.47-1.04.83v4.81h-2.44v-7.93h2.23v1.53c.29-.54.65-.96,1.08-1.27s.9-.46,1.37-.47h.25c.05,0,.1,0,.15.02v2.2Z"/>
  <path class="cls-1" d="M104.55,45.02c-.68,0-1.29-.11-1.82-.32s-.98-.51-1.35-.88c-.37-.37-.65-.8-.85-1.29s-.29-1-.29-1.53c0-.76.17-1.46.51-2.08s.83-1.13,1.47-1.51c.64-.38,1.42-.57,2.32-.57s1.68.19,2.32.57c.64.38,1.13.88,1.46,1.5.33.62.5,1.29.5,2.01,0,.14,0,.28-.02.41-.02.14-.03.25-.04.35h-5.92c.02.35.12.64.29.88.17.24.39.42.66.53.26.12.54.18.82.18.38,0,.73-.09,1.05-.26.32-.17.54-.4.65-.69l2.08.6c-.2.42-.49.78-.86,1.09s-.8.56-1.31.75c-.5.19-1.06.28-1.67.28ZM102.79,40.16h3.47c-.03-.32-.13-.61-.29-.85s-.37-.43-.61-.56c-.24-.13-.53-.2-.85-.2-.3,0-.57.07-.83.2-.25.13-.46.32-.61.55s-.24.52-.27.85Z"/>
  <path class="cls-1" d="M113.77,45.02c-.68,0-1.29-.11-1.82-.33-.53-.22-.98-.52-1.35-.9-.37-.38-.65-.82-.85-1.31s-.29-1.02-.29-1.57c0-.73.17-1.41.51-2.03.34-.62.83-1.12,1.47-1.49s1.41-.57,2.31-.57,1.71.19,2.34.58c.64.39,1.11.9,1.43,1.53l-2.38.72c-.15-.24-.35-.44-.59-.57-.24-.14-.51-.21-.8-.21-.34,0-.64.09-.91.26-.27.17-.48.41-.64.71-.16.3-.24.66-.24,1.06s.08.77.24,1.08.37.55.65.72c.27.17.57.25.9.25.21,0,.41-.03.59-.1.18-.07.34-.16.49-.28s.26-.25.34-.4l2.37.72c-.2.42-.48.78-.84,1.09s-.78.56-1.27.75c-.49.19-1.04.28-1.66.28Z"/>
  <path class="cls-1" d="M126.38,44.86h-2.44v-4.42c0-.51-.11-.88-.32-1.12-.21-.24-.49-.36-.84-.36-.18,0-.39.06-.63.17-.23.11-.45.27-.63.48-.19.21-.33.45-.43.72v4.54h-2.44v-11.15h2.44v4.58c.29-.48.68-.85,1.17-1.1s1.02-.38,1.61-.38c.54,0,.97.09,1.31.27.33.18.58.41.76.7.17.29.29.61.36.96s.1.71.1,1.05v5.06Z"/>
  <path class="cls-1" d="M131.81,45.02c-.69,0-1.3-.11-1.82-.32-.52-.22-.97-.52-1.34-.9-.37-.39-.65-.83-.84-1.32-.19-.49-.28-1.01-.28-1.55s.1-1.08.29-1.57c.19-.49.47-.93.83-1.31.36-.38.81-.68,1.34-.9.53-.22,1.14-.32,1.82-.32s1.29.11,1.82.32c.53.22.98.52,1.34.9s.65.82.84,1.31c.19.49.29,1.01.29,1.57s-.09,1.06-.28,1.55c-.19.49-.47.93-.84,1.32-.37.39-.82.69-1.35.9-.53.22-1.14.32-1.82.32ZM130.02,40.92c0,.4.08.75.24,1.06.16.31.37.55.63.72s.57.26.92.26.64-.09.91-.26c.27-.17.48-.41.63-.71.15-.3.23-.66.23-1.06s-.08-.76-.23-1.06c-.15-.3-.36-.54-.63-.72-.27-.18-.57-.27-.91-.27s-.64.09-.9.26c-.27.17-.48.41-.64.72-.16.31-.24.67-.24,1.07Z"/>
  <path class="cls-1" d="M140.37,45.02c-.68,0-1.35-.11-1.99-.34s-1.2-.56-1.66-1l.85-1.53c.48.36.95.62,1.41.8.46.18.9.27,1.31.27.3,0,.55-.05.72-.14.18-.09.27-.24.27-.44,0-.15-.05-.27-.16-.35-.11-.08-.26-.16-.47-.23-.2-.08-.46-.15-.76-.23-.61-.21-1.12-.41-1.53-.59-.41-.19-.71-.42-.92-.69-.2-.28-.3-.63-.3-1.08,0-.53.14-1,.41-1.39.27-.4.66-.7,1.15-.93.49-.22,1.09-.33,1.78-.33.55,0,1.09.09,1.62.26.53.17,1.02.47,1.48.89l-.96,1.51c-.45-.32-.85-.54-1.21-.69-.36-.14-.71-.21-1.05-.21-.17,0-.33.02-.47.06-.14.04-.26.1-.34.19-.09.09-.13.21-.13.38,0,.14.04.26.13.35.09.09.22.17.41.24.19.06.42.14.69.22.67.2,1.23.39,1.67.58.44.19.77.43.99.72.22.29.33.67.33,1.14,0,.8-.3,1.43-.89,1.88-.59.46-1.39.68-2.4.68Z"/>
  <path class="cls-1" d="M153.53,38.94c-.59,0-1.12.09-1.6.28s-.82.47-1.04.83v4.81h-2.44v-7.93h2.23v1.53c.29-.54.65-.96,1.08-1.27s.9-.46,1.37-.47h.25c.05,0,.1,0,.15.02v2.2Z"/>
  <path class="cls-1" d="M158.33,45.02c-.68,0-1.29-.11-1.82-.32s-.98-.51-1.35-.88c-.37-.37-.65-.8-.85-1.29s-.29-1-.29-1.53c0-.76.17-1.46.51-2.08s.83-1.13,1.47-1.51c.64-.38,1.42-.57,2.32-.57s1.68.19,2.32.57c.64.38,1.13.88,1.46,1.5.33.62.5,1.29.5,2.01,0,.14,0,.28-.02.41-.02.14-.03.25-.04.35h-5.92c.02.35.12.64.29.88.17.24.39.42.66.53.26.12.54.18.82.18.38,0,.73-.09,1.05-.26.32-.17.54-.4.65-.69l2.08.6c-.2.42-.49.78-.86,1.09s-.8.56-1.31.75c-.5.19-1.06.28-1.67.28ZM156.57,40.16h3.47c-.03-.32-.13-.61-.29-.85s-.37-.43-.61-.56c-.24-.13-.53-.2-.85-.2-.3,0-.57.07-.83.2-.25.13-.46.32-.61.55s-.24.52-.27.85Z"/>
  <path class="cls-1" d="M166.79,45.02c-.68,0-1.35-.11-1.99-.34s-1.2-.56-1.66-1l.85-1.53c.48.36.95.62,1.41.8.46.18.9.27,1.31.27.3,0,.55-.05.72-.14.18-.09.27-.24.27-.44,0-.15-.05-.27-.16-.35-.11-.08-.26-.16-.47-.23-.2-.08-.46-.15-.76-.23-.61-.21-1.12-.41-1.53-.59-.41-.19-.71-.42-.92-.69-.2-.28-.3-.63-.3-1.08,0-.53.14-1,.41-1.39.27-.4.66-.7,1.15-.93.49-.22,1.09-.33,1.78-.33.55,0,1.09.09,1.62.26.53.17,1.02.47,1.48.89l-.96,1.51c-.45-.32-.85-.54-1.21-.69-.36-.14-.71-.21-1.05-.21-.17,0-.33.02-.47.06-.14.04-.26.1-.34.19-.09.09-.13.21-.13.38,0,.14.04.26.13.35.09.09.22.17.41.24.19.06.42.14.69.22.67.2,1.23.39,1.67.58.44.19.77.43.99.72.22.29.33.67.33,1.14,0,.8-.3,1.43-.89,1.88-.59.46-1.39.68-2.4.68Z"/>
  <path class="cls-1" d="M175.14,45.02c-.68,0-1.29-.11-1.82-.32s-.98-.51-1.35-.88c-.37-.37-.65-.8-.85-1.29s-.29-1-.29-1.53c0-.76.17-1.46.51-2.08s.83-1.13,1.47-1.51c.64-.38,1.42-.57,2.32-.57s1.68.19,2.32.57c.64.38,1.13.88,1.46,1.5.33.62.5,1.29.5,2.01,0,.14,0,.28-.02.41-.02.14-.03.25-.04.35h-5.92c.02.35.12.64.29.88.17.24.39.42.66.53.26.12.54.18.82.18.38,0,.73-.09,1.05-.26.32-.17.54-.4.65-.69l2.08.6c-.2.42-.49.78-.86,1.09s-.8.56-1.31.75c-.5.19-1.06.28-1.67.28ZM173.38,40.16h3.47c-.03-.32-.13-.61-.29-.85s-.37-.43-.61-.56c-.24-.13-.53-.2-.85-.2-.3,0-.57.07-.83.2-.25.13-.46.32-.61.55s-.24.52-.27.85Z"/>
  <path class="cls-1" d="M185.62,38.94c-.59,0-1.12.09-1.6.28s-.82.47-1.04.83v4.81h-2.44v-7.93h2.23v1.53c.29-.54.65-.96,1.08-1.27s.9-.46,1.37-.47h.25c.05,0,.1,0,.15.02v2.2Z"/>
  <path class="cls-1" d="M188.7,44.86l-2.83-7.93h2.52l1.76,5.75,1.76-5.75h2.29l-2.83,7.93h-2.67Z"/>
  <path class="cls-1" d="M194.41,42.5c0-.51.15-.97.44-1.37.3-.4.7-.71,1.22-.94.52-.23,1.12-.34,1.79-.34.33,0,.65.03.96.08.32.06.59.14.82.24v-.35c0-.43-.13-.76-.4-.98-.26-.22-.67-.33-1.21-.33-.44,0-.85.08-1.25.23-.4.15-.81.37-1.25.66l-.73-1.56c.53-.35,1.08-.6,1.66-.77s1.18-.25,1.83-.25c1.2,0,2.13.28,2.8.84s1,1.38,1,2.46v2.04c0,.24.04.41.11.51.08.1.21.15.39.17v2.03c-.2.05-.39.08-.56.1-.17.02-.33.02-.46.02-.46,0-.8-.09-1.04-.27-.23-.18-.39-.43-.46-.75l-.06-.35c-.35.46-.77.81-1.26,1.05-.49.24-1.01.36-1.55.36s-1-.11-1.43-.32c-.42-.22-.76-.52-1-.9-.24-.38-.37-.81-.37-1.3ZM199.27,42.79c.11-.09.2-.19.28-.3.07-.11.11-.21.11-.3v-.7c-.2-.08-.43-.14-.69-.19-.25-.04-.49-.07-.7-.07-.44,0-.8.1-1.1.3-.3.2-.44.45-.44.76,0,.17.05.33.15.48.1.15.24.27.42.36.18.08.39.13.63.13s.49-.04.73-.13.45-.2.61-.33Z"/>
  <path class="cls-1" d="M203.4,40.9c0-.76.15-1.45.46-2.07.31-.62.72-1.11,1.25-1.47s1.14-.54,1.83-.54c.56,0,1.07.13,1.53.4.46.27.8.62,1.04,1.05v-4.55h2.44v8.43c0,.24.04.42.12.52.08.1.22.16.42.17v2.03c-.44.08-.79.12-1.05.12-.43,0-.77-.09-1.02-.27-.25-.18-.41-.44-.47-.76l-.03-.41c-.29.5-.69.87-1.18,1.11-.49.24-1,.37-1.54.37s-1.06-.1-1.52-.31c-.46-.21-.87-.49-1.21-.87-.34-.37-.6-.81-.79-1.3-.18-.5-.27-1.04-.27-1.64ZM209.53,41.87v-1.64c-.1-.27-.25-.5-.43-.7-.19-.2-.4-.36-.64-.48s-.48-.19-.71-.19c-.28,0-.52.06-.75.18-.22.12-.41.27-.57.46s-.28.41-.37.66c-.09.25-.13.52-.13.8s.05.55.14.79c.1.24.23.45.4.63.17.18.37.32.61.42s.5.16.77.16c.17,0,.34-.02.5-.07.16-.05.32-.12.47-.22.15-.1.28-.21.4-.34.12-.13.22-.28.31-.45Z"/>
  <path class="cls-1" d="M217.67,45.02c-.69,0-1.3-.11-1.82-.32-.52-.22-.97-.52-1.34-.9-.37-.39-.65-.83-.84-1.32-.19-.49-.28-1.01-.28-1.55s.1-1.08.29-1.57c.19-.49.47-.93.83-1.31.36-.38.81-.68,1.34-.9.53-.22,1.14-.32,1.82-.32s1.29.11,1.82.32c.53.22.98.52,1.34.9s.65.82.84,1.31c.19.49.29,1.01.29,1.57s-.09,1.06-.28,1.55c-.19.49-.47.93-.84,1.32-.37.39-.82.69-1.35.9-.53.22-1.14.32-1.82.32ZM215.88,40.92c0,.4.08.75.24,1.06.16.31.37.55.63.72s.57.26.92.26.64-.09.91-.26c.27-.17.48-.41.63-.71.15-.3.23-.66.23-1.06s-.08-.76-.23-1.06c-.15-.3-.36-.54-.63-.72-.27-.18-.57-.27-.91-.27s-.64.09-.9.26c-.27.17-.48.41-.64.72-.16.31-.24.67-.24,1.07Z"/>
  <path class="cls-1" d="M226.23,45.02c-.68,0-1.35-.11-1.99-.34s-1.2-.56-1.66-1l.85-1.53c.48.36.95.62,1.41.8.46.18.9.27,1.31.27.3,0,.55-.05.72-.14.18-.09.27-.24.27-.44,0-.15-.05-.27-.16-.35-.11-.08-.26-.16-.47-.23-.2-.08-.46-.15-.76-.23-.61-.21-1.12-.41-1.53-.59-.41-.19-.71-.42-.92-.69-.2-.28-.3-.63-.3-1.08,0-.53.14-1,.41-1.39.27-.4.66-.7,1.15-.93.49-.22,1.09-.33,1.78-.33.55,0,1.09.09,1.62.26.53.17,1.02.47,1.48.89l-.96,1.51c-.45-.32-.85-.54-1.21-.69-.36-.14-.71-.21-1.05-.21-.17,0-.33.02-.47.06-.14.04-.26.1-.34.19-.09.09-.13.21-.13.38,0,.14.04.26.13.35.09.09.22.17.41.24.19.06.42.14.69.22.67.2,1.23.39,1.67.58.44.19.77.43.99.72.22.29.33.67.33,1.14,0,.8-.3,1.43-.89,1.88-.59.46-1.39.68-2.4.68Z"/>
  <path class="cls-1" d="M327.21,33.16c.05-1.64-1.68-2.87-3.13-2.09-1.94,1.05-.59,3.92-.91,6-.26,1.71-.49,3.78.93,4.46,1.34.65,2.88-.48,2.94-1.96.08-2.2.1-4.24.17-6.42Z"/>
  <circle class="cls-2" cx="262.11" cy="35.67" r="4.84"/>
  <circle class="cls-2" cx="300.41" cy="35.67" r="4.84"/>
</svg>